<?xml version="1.0" standalone="no"?>
<!DOCTYPE svg PUBLIC "-//W3C//DTD SVG 20010904//EN"
 "http://www.w3.org/TR/2001/REC-SVG-20010904/DTD/svg10.dtd">
<svg version="1.0" xmlns="http://www.w3.org/2000/svg"
 width="500.000000pt" height="500.000000pt" viewBox="0 0 500.000000 500.000000"
 preserveAspectRatio="xMidYMid meet">
<metadata>
Created by potrace 1.14, written by Peter Selinger 2001-2017
</metadata>
<g transform="translate(0.000000,500.000000) scale(0.100000,-0.100000)"
fill="#000000" stroke="none">
<path d="M2401 4297 c-47 -72 -105 -163 -129 -202 -64 -99 -128 -199 -178
-277 -24 -37 -44 -72 -44 -78 0 -5 -3 -10 -7 -10 -9 0 -38 -44 -307 -467 -27
-43 -69 -107 -92 -143 -120 -187 -314 -493 -314 -497 0 -2 -5 -9 -11 -16 -6
-7 -39 -56 -72 -110 -34 -53 -134 -210 -222 -347 -88 -138 -167 -262 -175
-277 -8 -15 -21 -34 -27 -42 -16 -20 -106 -160 -170 -264 -26 -43 -59 -96 -73
-117 -14 -21 -38 -60 -54 -86 -16 -27 -47 -78 -70 -113 -23 -36 -45 -73 -51
-82 -32 -56 -131 -205 -137 -207 -4 -2 -8 -8 -8 -12 0 -5 -27 -51 -60 -102
-33 -51 -78 -122 -100 -158 -23 -36 -48 -75 -57 -88 -15 -22 -15 -22 28 -23
304 -5 4869 -2 4869 3 0 8 -26 51 -187 305 -34 54 -67 103 -73 110 -5 7 -10
14 -10 17 0 5 -85 137 -99 153 -6 7 -11 17 -11 22 0 5 -7 16 -15 24 -8 8 -25
36 -39 60 -13 25 -66 112 -117 192 -52 80 -112 174 -134 208 -21 34 -67 106
-102 159 -35 54 -63 100 -63 102 0 2 -35 57 -78 122 -42 66 -83 131 -91 146
-8 15 -22 37 -33 47 -10 11 -18 23 -18 26 0 3 -8 18 -19 33 -48 70 -111 172
-111 181 0 5 -4 11 -8 13 -4 2 -30 39 -57 83 -27 44 -52 82 -55 85 -7 7 -28
41 -37 60 -4 8 -11 20 -15 25 -14 17 -146 221 -183 284 -5 9 -20 31 -33 49
-13 17 -20 32 -17 32 4 0 0 6 -7 14 -11 10 -178 268 -223 344 -26 43 -197 305
-208 317 -8 9 -97 151 -125 198 -7 12 -51 81 -97 152 -46 72 -105 165 -132
207 -26 43 -50 78 -53 78 -3 0 -43 -60 -89 -133z"/>
</g>
</svg>
